<svg width="29" height="32" viewBox="0 0 29 32" fill="none" xmlns="http://www.w3.org/2000/svg">
<path d="M25.7999 25.6H9.79995C8.95126 25.6 8.13733 25.2629 7.53721 24.6627C6.93709 24.0626 6.59995 23.2487 6.59995 22.4V3.2C6.59995 2.35131 6.93709 1.53737 7.53721 0.937258C8.13733 0.337142 8.95126 0 9.79995 0H11.4V8L14.6 5.6L17.7999 8V0H25.7999C26.6486 0 27.4626 0.337142 28.0627 0.937258C28.6628 1.53737 29 2.35131 29 3.2V22.4C29 23.2487 28.6628 24.0626 28.0627 24.6627C27.4626 25.2629 26.6486 25.6 25.7999 25.6ZM22.5999 28.8V32H3.39995C2.55126 32 1.73733 31.6629 1.13721 31.0627C0.537093 30.4626 0.199951 29.6487 0.199951 28.8V6.4H3.39995V28.8H22.5999Z" fill="#653CD8"/>
</svg>
