<svg width="33" height="34" viewBox="0 0 33 34" fill="none" xmlns="http://www.w3.org/2000/svg">
<path d="M2 15.3889C2 9.31339 2 6.27483 3.88822 4.38822C5.77483 2.5 8.81339 2.5 14.8889 2.5H18.1111C24.1866 2.5 27.2252 2.5 29.1118 4.38822C31 6.27483 31 9.31339 31 15.3889V18.6111C31 24.6866 31 27.7252 29.1118 29.6118C27.2252 31.5 24.1866 31.5 18.1111 31.5H14.8889C8.81339 31.5 5.77483 31.5 3.88822 29.6118C2 27.7252 2 24.6866 2 18.6111V15.3889Z" stroke="#653CD8" stroke-width="3.22222"/>
<path d="M25.361 9.75001C25.361 10.6398 24.6397 11.3611 23.7499 11.3611C22.8601 11.3611 22.1388 10.6398 22.1388 9.75001C22.1388 8.86022 22.8601 8.1389 23.7499 8.1389C24.6397 8.1389 25.361 8.86022 25.361 9.75001Z" stroke="#653CD8" stroke-width="1.61111"/>
<path d="M16.5001 21.8333C19.1695 21.8333 21.3334 19.6694 21.3334 17C21.3334 14.3306 19.1695 12.1667 16.5001 12.1667C13.8307 12.1667 11.6667 14.3306 11.6667 17C11.6667 19.6694 13.8307 21.8333 16.5001 21.8333Z" stroke="#653CD8" stroke-width="3.22222"/>
</svg>
