<svg width="30" height="36" viewBox="0 0 30 36" fill="none" xmlns="http://www.w3.org/2000/svg">
<path d="M27.9999 14.8C27.9999 20.2464 24.5983 24.8976 19.8047 26.7472H10.5951C5.8015 24.8976 2.3999 20.2464 2.3999 14.8C2.3999 7.7304 8.1303 2 15.1999 2C22.2695 2 27.9999 7.7304 27.9999 14.8Z" stroke="#653CD8" stroke-width="3.2" stroke-linecap="round" stroke-linejoin="round"/>
<path d="M19.8047 26.7472L19.2607 33.2672C19.2439 33.467 19.1526 33.6532 19.0051 33.7889C18.8575 33.9246 18.6644 33.9999 18.4639 34H11.9359C11.7353 33.9999 11.5421 33.9244 11.3945 33.7886C11.2469 33.6527 11.1558 33.4663 11.1391 33.2664L10.5951 26.7464M10.3999 12.4V17.2L15.1999 14.8L19.9999 17.2V12.4" stroke="#653CD8" stroke-width="3.2" stroke-linecap="round" stroke-linejoin="round"/>
</svg>
