<svg width="29" height="29" viewBox="0 0 29 29" fill="none" xmlns="http://www.w3.org/2000/svg">
<path fill-rule="evenodd" clip-rule="evenodd" d="M24.5385 24.8699C25.2233 24.2664 25.6538 23.3908 25.6538 22.4165V12.4907C25.654 11.9865 25.5364 11.489 25.3101 11.0366C25.0839 10.5842 24.755 10.189 24.3488 9.88143L16.5412 3.97381C15.956 3.53071 15.2384 3.29044 14.5 3.29044C13.7616 3.29044 13.0439 3.53071 12.4588 3.97381L4.65115 9.88143C4.24473 10.1892 3.91567 10.5848 3.68939 11.0376C3.46311 11.4904 3.34568 11.9883 3.34615 12.4929V22.4165C3.34498 22.8478 3.43021 23.2751 3.59698 23.674C3.76375 24.0729 4.00878 24.4355 4.31808 24.7412C4.62738 25.0469 4.99488 25.2897 5.39958 25.4556C5.80428 25.6215 6.23825 25.7074 6.67669 25.7082H7.80769V18.0275C7.80769 16.8634 8.27775 15.747 9.11445 14.9239C9.95115 14.1008 11.086 13.6384 12.2692 13.6384H16.7308C17.914 13.6384 19.0489 14.1008 19.8856 14.9239C20.7223 15.747 21.1923 16.8634 21.1923 18.0275V25.7082H22.3233C23.1732 25.7038 23.9518 25.3878 24.5385 24.8699ZM29 22.4165C29 24.1625 28.2949 25.8371 27.0399 27.0717C25.7848 28.3064 24.0826 29 22.3077 29H6.69231C4.9174 29 3.21518 28.3064 1.96013 27.0717C0.705081 25.8371 0 24.1625 0 22.4165V12.4907C6.97618e-05 11.4827 0.235434 10.4881 0.68795 9.58374C1.14047 8.67934 1.79805 7.88924 2.61 7.27435L10.4177 1.36673C11.5879 0.480534 13.0232 0 14.5 0C15.9768 0 17.4121 0.480534 18.5823 1.36673L26.39 7.27435C27.2019 7.88981 27.8594 8.68033 28.3119 9.58506C28.7643 10.4898 28.9998 11.4846 29 12.4929V22.4165ZM17.8462 18.0275C17.8462 17.7364 17.7286 17.4573 17.5195 17.2516C17.3103 17.0458 17.0266 16.9302 16.7308 16.9302H12.2692C11.9734 16.9302 11.6897 17.0458 11.4805 17.2516C11.2714 17.4573 11.1538 17.7364 11.1538 18.0275V25.7082H17.8462V18.0275Z" fill="#653CD8"/>
</svg>
