<svg width="44" height="29" viewBox="0 0 44 29" fill="none" xmlns="http://www.w3.org/2000/svg">
<path d="M12.7986 0.59491C14.0679 0.59491 15.2419 0.694231 16.3146 0.988224C17.3893 1.18488 18.2693 1.5782 19.0499 2.06885C19.8326 2.5595 20.4186 3.24879 20.8079 4.13275C21.1992 5.01672 21.3959 6.09932 21.3959 7.27728C21.3959 8.65388 21.1019 9.83184 20.4186 10.7158C19.8326 11.6018 18.8553 12.3864 17.6833 12.9764C19.3439 13.469 20.6132 14.353 21.3959 15.5309C22.1766 16.7109 22.6652 18.1848 22.6652 19.8554C22.6652 21.232 22.3712 22.4099 21.8826 23.3932C21.3959 24.3765 20.6132 25.2605 19.7333 25.8505C18.7774 26.4829 17.7207 26.9477 16.6086 27.2251C15.4366 27.521 14.2646 27.7177 13.0926 27.7177H0V0.59491H12.7986ZM12.016 11.5998C13.0906 11.5998 13.9706 11.3058 14.6539 10.8151C15.3373 10.3245 15.6313 9.43852 15.6313 8.3579C15.6313 7.76793 15.5319 7.17796 15.3373 6.78663C15.1426 6.39332 14.8486 6.09734 14.4593 5.80335C14.061 5.58013 13.6329 5.41492 13.1879 5.3127C12.6993 5.21337 12.2126 5.21337 11.6246 5.21337H5.95931V11.6018L12.016 11.5998ZM12.3099 23.1966C12.8959 23.1966 13.4819 23.0973 13.9706 22.9999C14.4593 22.9006 14.9479 22.7059 15.3373 22.41C15.7353 22.1224 16.0683 21.7542 16.3146 21.3293C16.5093 20.8387 16.7059 20.2487 16.7059 19.5614C16.7059 18.1848 16.3146 17.2015 15.5339 16.5142C14.7513 15.9242 13.6766 15.6302 12.4073 15.6302H5.95931V23.1986L12.3099 23.1966ZM31.1652 23.0973C31.9459 23.8839 33.1179 24.2772 34.6812 24.2772C35.7558 24.2772 36.7332 23.9832 37.5138 23.4926C38.2965 22.9026 38.7852 22.3126 38.9798 21.7226H43.7671C42.9845 24.0805 41.8125 25.7511 40.2512 26.8318C38.6858 27.815 36.8305 28.405 34.5839 28.405C33.1464 28.4095 31.721 28.1426 30.3825 27.6184C29.1781 27.1667 28.104 26.4243 27.2559 25.4571C26.3487 24.5525 25.6781 23.4384 25.3032 22.2133C24.8146 20.936 24.6179 19.5614 24.6179 17.9881C24.6179 16.5142 24.8146 15.1396 25.3032 13.8603C25.7736 12.6288 26.4695 11.4957 27.3552 10.5191C28.2332 9.63518 29.3079 8.85054 30.4799 8.3579C31.7844 7.83361 33.1779 7.56649 34.5839 7.57127C36.2445 7.57127 37.7105 7.86725 38.9798 8.55456C40.2512 9.24187 41.2265 10.0285 42.0072 11.2084C42.7898 12.2891 43.3778 13.5663 43.7671 14.9429C43.9618 16.3176 44.0592 17.6942 43.9618 19.2654H29.7965C29.7965 20.8387 30.3825 22.3126 31.1652 23.0992M37.3192 12.7817C36.6358 12.0944 35.5612 11.7011 34.2899 11.7011C33.5444 11.6899 32.8073 11.8582 32.1405 12.1917C31.5545 12.4877 31.1652 12.881 30.7739 13.2743C30.4143 13.6542 30.1763 14.1329 30.0905 14.6489C29.9912 15.1416 29.8939 15.5329 29.8939 15.9262H38.6858C38.4912 14.4523 38.0025 13.471 37.3192 12.7817ZM28.7219 2.46216H39.6632V5.11604H28.7239L28.7219 2.46216Z" fill="url(#paint0_linear_505_1147)"/>
<defs>
<linearGradient id="paint0_linear_505_1147" x1="22" y1="0.59491" x2="22" y2="28.4051" gradientUnits="userSpaceOnUse">
<stop stop-color="#653CD8"/>
<stop offset="1" stop-color="#F3B352"/>
</linearGradient>
</defs>
</svg>
