<svg width="38" height="38" viewBox="0 0 38 38" fill="none" xmlns="http://www.w3.org/2000/svg">
<path d="M30.1625 7.77416C28.7109 6.30787 26.9819 5.1453 25.0763 4.35424C23.1707 3.56318 21.1266 3.15947 19.0633 3.16666C10.4183 3.16666 3.37252 10.2125 3.37252 18.8575C3.37252 21.6283 4.10085 24.32 5.46252 26.695L3.24585 34.8333L11.5583 32.6483C13.8542 33.8992 16.435 34.5642 19.0633 34.5642C27.7083 34.5642 34.7542 27.5183 34.7542 18.8733C34.7542 14.6775 33.1233 10.735 30.1625 7.77416ZM19.0633 31.9042C16.72 31.9042 14.4242 31.2708 12.4133 30.0833L11.9383 29.7983L6.99835 31.0967L8.31252 26.2833L7.99585 25.7925C6.69395 23.7135 6.00265 21.3105 6.00085 18.8575C6.00085 11.6692 11.8592 5.81083 19.0475 5.81083C22.5308 5.81083 25.8083 7.17249 28.2625 9.64249C29.4777 10.8521 30.4407 12.2909 31.0957 13.8754C31.7507 15.46 32.0847 17.1587 32.0784 18.8733C32.11 26.0617 26.2517 31.9042 19.0633 31.9042ZM26.22 22.1508C25.8242 21.9608 23.8925 21.0108 23.5442 20.8683C23.18 20.7417 22.9267 20.6783 22.6575 21.0583C22.3883 21.4542 21.6442 22.3408 21.4225 22.5942C21.2008 22.8633 20.9633 22.895 20.5675 22.6892C20.1717 22.4992 18.905 22.0717 17.4167 20.7417C16.245 19.6967 15.4692 18.4142 15.2317 18.0183C15.01 17.6225 15.2 17.4167 15.4058 17.2108C15.58 17.0367 15.8017 16.7517 15.9917 16.53C16.1817 16.3083 16.2608 16.1342 16.3875 15.8808C16.5142 15.6117 16.4508 15.39 16.3558 15.2C16.2608 15.01 15.4692 13.0783 15.1525 12.2867C14.8358 11.5267 14.5033 11.6217 14.2658 11.6058H13.5058C13.2367 11.6058 12.825 11.7008 12.4608 12.0967C12.1125 12.4925 11.0992 13.4425 11.0992 15.3742C11.0992 17.3058 12.5083 19.1742 12.6983 19.4275C12.8883 19.6967 15.4692 23.655 19.3958 25.3492C20.33 25.7608 21.0583 25.9983 21.6283 26.1725C22.5625 26.4733 23.4175 26.4258 24.0983 26.3308C24.8583 26.22 26.4258 25.3808 26.7425 24.4625C27.075 23.5442 27.075 22.7683 26.9642 22.5942C26.8533 22.42 26.6158 22.3408 26.22 22.1508Z" fill="#43E33F"/>
</svg>
