<svg width="32" height="32" viewBox="0 0 32 32" fill="none" xmlns="http://www.w3.org/2000/svg">
<path d="M27.4084 4.77422C25.9568 3.30794 24.2277 2.14536 22.3221 1.3543C20.4165 0.563241 18.3725 0.159532 16.3092 0.16672C7.6642 0.16672 0.618366 7.21255 0.618366 15.8576C0.618366 18.6284 1.3467 21.3201 2.70837 23.6951L0.491699 31.8334L8.8042 29.6484C11.1 30.8992 13.6809 31.5642 16.3092 31.5642C24.9542 31.5642 32 24.5184 32 15.8734C32 11.6776 30.3692 7.73505 27.4084 4.77422ZM16.3092 28.9042C13.9659 28.9042 11.67 28.2709 9.6592 27.0834L9.1842 26.7984L4.2442 28.0967L5.55837 23.2834L5.2417 22.7926C3.9398 20.7136 3.2485 18.3105 3.2467 15.8576C3.2467 8.66922 9.10503 2.81089 16.2934 2.81089C19.7767 2.81089 23.0542 4.17255 25.5084 6.64255C26.7235 7.85216 27.6866 9.29093 28.3416 10.8755C28.9966 12.46 29.3306 14.1588 29.3242 15.8734C29.3559 23.0617 23.4975 28.9042 16.3092 28.9042ZM23.4659 19.1509C23.07 18.9609 21.1384 18.0109 20.79 17.8684C20.4259 17.7417 20.1725 17.6784 19.9034 18.0584C19.6342 18.4542 18.89 19.3409 18.6684 19.5942C18.4467 19.8634 18.2092 19.8951 17.8134 19.6892C17.4175 19.4992 16.1509 19.0717 14.6625 17.7417C13.4909 16.6967 12.715 15.4142 12.4775 15.0184C12.2559 14.6226 12.4459 14.4167 12.6517 14.2109C12.8259 14.0367 13.0475 13.7517 13.2375 13.5301C13.4275 13.3084 13.5067 13.1342 13.6334 12.8809C13.76 12.6117 13.6967 12.3901 13.6017 12.2001C13.5067 12.0101 12.715 10.0784 12.3984 9.28672C12.0817 8.52672 11.7492 8.62172 11.5117 8.60589H10.7517C10.4825 8.60589 10.0709 8.70089 9.7067 9.09672C9.35836 9.49255 8.34503 10.4426 8.34503 12.3742C8.34503 14.3059 9.7542 16.1742 9.9442 16.4276C10.1342 16.6967 12.715 20.6551 16.6417 22.3492C17.5759 22.7609 18.3042 22.9984 18.8742 23.1726C19.8084 23.4734 20.6634 23.4259 21.3442 23.3309C22.1042 23.2201 23.6717 22.3809 23.9884 21.4626C24.3209 20.5442 24.3209 19.7684 24.21 19.5942C24.0992 19.4201 23.8617 19.3409 23.4659 19.1509Z" fill="#653CD8"/>
</svg>
